<svg id="visual" viewBox="0 0 1100 20" width="1100" height="20" xmlns="http://www.w3.org/2000/svg" xmlns:xlink="http://www.w3.org/1999/xlink" version="1.1"><rect x="0" y="0" width="1100" height="20" fill="#fff9f9"></rect><path d="M0 13L20.3 12.3C40.7 11.7 81.3 10.3 122 9.7C162.7 9 203.3 9 244.2 9.8C285 10.7 326 12.3 366.8 13.2C407.7 14 448.3 14 489 12.7C529.7 11.3 570.3 8.7 611 8.3C651.7 8 692.3 10 733.2 11.5C774 13 815 14 855.8 12.7C896.7 11.3 937.3 7.7 978 5.7C1018.7 3.7 1059.3 3.3 1079.7 3.2L1100 3L1100 0L1079.7 0C1059.3 0 1018.7 0 978 0C937.3 0 896.7 0 855.8 0C815 0 774 0 733.2 0C692.3 0 651.7 0 611 0C570.3 0 529.7 0 489 0C448.3 0 407.7 0 366.8 0C326 0 285 0 244.2 0C203.3 0 162.7 0 122 0C81.3 0 40.7 0 20.3 0L0 0Z" fill="#000000" stroke-linecap="round" stroke-linejoin="miter"></path></svg>