<svg id="visual" viewBox="0 0 1100 200" width="1100" height="200" xmlns="http://www.w3.org/2000/svg" xmlns:xlink="http://www.w3.org/1999/xlink" version="1.1"><rect x="0" y="0" width="1100" height="200" fill="#ffffff"></rect><path d="M0 142L23 142.3C46 142.7 92 143.3 137.8 141.8C183.7 140.3 229.3 136.7 275.2 130.5C321 124.3 367 115.7 412.8 118.5C458.7 121.3 504.3 135.7 550.2 140.3C596 145 642 140 687.8 135C733.7 130 779.3 125 825.2 126.3C871 127.7 917 135.3 962.8 138.2C1008.7 141 1054.3 139 1077.2 138L1100 137L1100 201L1077.2 201C1054.3 201 1008.7 201 962.8 201C917 201 871 201 825.2 201C779.3 201 733.7 201 687.8 201C642 201 596 201 550.2 201C504.3 201 458.7 201 412.8 201C367 201 321 201 275.2 201C229.3 201 183.7 201 137.8 201C92 201 46 201 23 201L0 201Z" fill="#000000" stroke-linecap="round" stroke-linejoin="miter"></path></svg>