<svg xmlns="http://www.w3.org/2000/svg" xmlns:xlink="http://www.w3.org/1999/xlink" width="500" zoomAndPan="magnify" viewBox="0 0 375 374.999991" height="500" preserveAspectRatio="xMidYMid meet" version="1.0"><defs><g/></defs><rect x="-37.5" width="450" fill="rgb(100%, 100%, 100%)" y="-37.499999" height="449.999989" fill-opacity="1"/><rect x="-37.5" width="450" fill="rgb(0%, 0%, 0%)" y="-37.499999" height="449.999989" fill-opacity="1"/><rect x="-37.5" width="450" fill="rgb(100%, 100%, 100%)" y="-37.499999" height="449.999989" fill-opacity="1"/><rect x="-37.5" width="450" fill="rgb(0%, 0%, 0%)" y="-37.499999" height="449.999989" fill-opacity="1"/><g fill="rgb(95.689392%, 95.689392%, 97.648621%)" fill-opacity="1"><g transform="translate(114.165722, 354.618686)"><g><path d="M 109.210938 0 C 112.378906 0 114.753906 -2.375 114.753906 -5.539062 L 114.753906 -227.527344 C 114.753906 -256.410156 98.925781 -259.972656 85.074219 -259.972656 L 11.078125 -259.972656 L 11.078125 -305.082031 L 150.363281 -305.082031 L 150.363281 -258.785156 L 141.265625 -258.785156 C 138.097656 -258.785156 135.722656 -256.410156 135.722656 -253.246094 C 135.722656 -250.082031 138.097656 -247.3125 141.265625 -247.3125 L 156.300781 -247.3125 C 159.464844 -247.3125 161.839844 -250.082031 161.839844 -253.246094 L 161.839844 -310.621094 C 161.839844 -313.789062 159.464844 -316.558594 156.300781 -316.558594 L 5.539062 -316.558594 C 2.375 -316.558594 0 -313.789062 0 -310.621094 L 0 -254.433594 C 0 -251.269531 2.375 -248.496094 5.539062 -248.496094 L 85.074219 -248.496094 C 96.15625 -248.496094 103.277344 -246.914062 103.277344 -227.527344 L 103.277344 -11.078125 L 56.980469 -11.078125 L 56.980469 -216.84375 C 56.980469 -220.007812 54.605469 -222.382812 51.441406 -222.382812 C 48.273438 -222.382812 45.902344 -220.007812 45.902344 -216.84375 L 45.902344 -5.539062 C 45.902344 -2.375 48.273438 0 51.441406 0 Z M 109.210938 0 "/></g></g></g></svg>